<svg width="88" height="31" xmlns="http://www.w3.org/2000/svg">
 <desc>Created with Lunacy</desc>

 <g>
  <title>background</title>
  <rect fill="none" id="canvas_background" height="33" width="90" y="-1" x="-1"/>
 </g>
 <g>
  <title>Layer 1</title>
  <g id="logo">
   <g transform="matrix(-1,0,0,1,32.99998,0) " id="Group">
    <path fill="#9b9b9b" id="Rectangle-2" d="m12.32682,0l12.6742,0c4.4177,0 7.999,3.58127 7.999,7.999l0,11.0512c0,4.4177 -3.5813,7.999 -7.999,7.999l-12.6742,0c-4.41773,0 -7.999,-3.5813 -7.999,-7.999l0,-11.0512c0,-4.41773 3.58127,-7.999 7.999,-7.999z"/>
    <path fill="#262626" id="Rectangle-2-Copy" d="m7.999,3.786892l12.6742,0c4.4177,0 7.999,3.58127 7.999,7.999l0,11.0512c0,4.4177 -3.5813,7.999 -7.999,7.999l-12.6742,0c-4.41773,0 -7.999,-3.5813 -7.999,-7.999l0,-11.0512c0,-4.41773 3.58127,-7.999 7.999,-7.999z"/>
   </g>
   <g fill="#171717" id="thēkē">
    <path fill="#1e1e1e" id="svg_1" d="m54.004,16.832004q0,-1.152 -0.099,-1.602q-0.099,-0.45 -0.405,-0.585q-0.306,-0.135 -1.08,-0.135q-0.774,0 -1.143,0.234q-0.369,0.234 -0.486,0.738q-0.117,0.504 -0.117,1.458l0,4.752l-2.394,0l0,-13.374l2.394,0l0,5.274l0.144,0q0.36,-0.63 1.017,-0.918q0.657,-0.288 1.683,-0.288q1.206,0 1.836,0.396q0.63,0.396 0.837,1.143q0.207,0.747 0.207,2.025l0,5.742l-2.394,0l0,-4.86zm20.682,4.86l-2.592,-3.6l-0.756,0l0,3.6l-2.394,0l0,-13.374l2.394,0l0,7.794l0.756,0l2.628,-3.6l2.592,0l-3.294,4.41l3.348,4.77l-2.682,0zm-14.382,-13.356l0,2.106l4.734,0l0,-2.106l-4.734,0zm20.034,0l0,2.106l4.734,0l0,-2.106l-4.734,0zm-38.196,13.356l0,-7.2l-1.764,0l0,-1.98l1.764,0l0,-2.664l2.394,0l0,2.664l2.088,0l0,1.98l-2.088,0l0,7.2l-2.394,0zm18.864,-3.87l5.724,0l0,-0.702q0,-1.944 -0.207,-2.871q-0.207,-0.927 -1.035,-1.404q-0.828,-0.477 -2.664,-0.477q-1.872,0 -2.763,0.486q-0.891,0.486 -1.17,1.449q-0.279,0.963 -0.279,2.817q0,1.908 0.27,2.862q0.27,0.954 1.206,1.404q0.936,0.45 2.934,0.45q0.9,0 1.836,-0.081q0.936,-0.081 1.512,-0.207l0,-1.836q-1.728,0.144 -2.79,0.144q-1.278,0 -1.782,-0.135q-0.504,-0.135 -0.648,-0.531q-0.144,-0.396 -0.144,-1.368zm20.034,0l5.724,0l0,-0.702q0,-1.944 -0.207,-2.871q-0.207,-0.927 -1.035,-1.404q-0.828,-0.477 -2.664,-0.477q-1.872,0 -2.763,0.486q-0.891,0.486 -1.17,1.449q-0.279,0.963 -0.279,2.817q0,1.908 0.27,2.862q0.27,0.954 1.206,1.404q0.936,0.45 2.934,0.45q0.9,0 1.836,-0.081q0.936,-0.081 1.512,-0.207l0,-1.836q-1.728,0.144 -2.79,0.144q-1.278,0 -1.782,-0.135q-0.504,-0.135 -0.648,-0.531q-0.144,-0.396 -0.144,-1.368zm-19.422,-3.393q0.36,-0.153 1.17,-0.153q0.702,0 1.044,0.135q0.342,0.135 0.486,0.567q0.144,0.432 0.144,1.368l-3.456,0q0.018,-0.936 0.135,-1.35q0.117,-0.414 0.477,-0.567zm20.034,0q0.36,-0.153 1.17,-0.153q0.702,0 1.044,0.135q0.342,0.135 0.486,0.567q0.144,0.432 0.144,1.368l-3.456,0q0.018,-0.936 0.135,-1.35q0.117,-0.414 0.477,-0.567z"/>
   </g>
  </g>
 </g>
</svg>