<?xml version="1.0" encoding="utf-8"?>
<svg width="99px" height="32px" viewBox="0 0 99 32" version="1.1" xmlns:xlink="http://www.w3.org/1999/xlink" xmlns="http://www.w3.org/2000/svg">
  <desc>Created with Lunacy</desc>
  <g id="logo">
    <g id="Group" transform="matrix(-1 0 0 1 32.99998 0)">
      <path d="M7.999 0L20.6732 0C25.0909 0 28.6722 3.58127 28.6722 7.999L28.6722 19.0502C28.6722 23.4679 25.0909 27.0492 20.6732 27.0492L7.999 27.0492C3.58127 27.0492 0 23.4679 0 19.0502L0 7.999C0 3.58127 3.58127 0 7.999 0Z" transform="translate(4.32782 0)" id="Rectangle-2" fill="#636363" stroke="none" />
      <path d="M7.999 0L20.6732 0C25.0909 0 28.6722 3.58127 28.6722 7.999L28.6722 19.0502C28.6722 23.4679 25.0909 27.0492 20.6732 27.0492L7.999 27.0492C3.58127 27.0492 0 23.4679 0 19.0502L0 7.999C0 3.58127 3.58127 0 7.999 0Z" transform="translate(0 3.786892)" id="Rectangle-2-Copy" fill="#111111" stroke="none" />
    </g>
    <g id="thēkē" fill="#171717" transform="translate(40 3.814694E-06)">
      <path d="M14.004 16.832Q14.004 15.68 13.905 15.23Q13.806 14.78 13.5 14.645Q13.194 14.51 12.42 14.51Q11.646 14.51 11.277 14.744Q10.908 14.978 10.791 15.482Q10.674 15.986 10.674 16.94L10.674 21.692L8.28 21.692L8.28 8.318L10.674 8.318L10.674 13.592L10.818 13.592Q11.178 12.962 11.835 12.674Q12.492 12.386 13.518 12.386Q14.724 12.386 15.354 12.782Q15.984 13.178 16.191 13.925Q16.398 14.672 16.398 15.95L16.398 21.692L14.004 21.692L14.004 16.832ZM34.686 21.692L32.094 18.092L31.338 18.092L31.338 21.692L28.944 21.692L28.944 8.318L31.338 8.318L31.338 16.112L32.094 16.112L34.722 12.512L37.314 12.512L34.02 16.922L37.368 21.692L34.686 21.692ZM20.304 8.336L20.304 10.442L25.038 10.442L25.038 8.336L20.304 8.336ZM40.338 8.336L40.338 10.442L45.072 10.442L45.072 8.336L40.338 8.336ZM2.142 21.692L2.142 14.492L0.378 14.492L0.378 12.512L2.142 12.512L2.142 9.848L4.536 9.848L4.536 12.512L6.624 12.512L6.624 14.492L4.536 14.492L4.536 21.692L2.142 21.692ZM21.006 17.822L26.73 17.822L26.73 17.12Q26.73 15.176 26.523 14.249Q26.316 13.322 25.488 12.845Q24.66 12.368 22.824 12.368Q20.952 12.368 20.061 12.854Q19.17 13.34 18.891 14.303Q18.612 15.266 18.612 17.12Q18.612 19.028 18.882 19.982Q19.152 20.936 20.088 21.386Q21.024 21.836 23.022 21.836Q23.922 21.836 24.858 21.755Q25.794 21.674 26.37 21.548L26.37 19.712Q24.642 19.856 23.58 19.856Q22.302 19.856 21.798 19.721Q21.294 19.586 21.15 19.19Q21.006 18.794 21.006 17.822ZM41.04 17.822L46.764 17.822L46.764 17.12Q46.764 15.176 46.557 14.249Q46.35 13.322 45.522 12.845Q44.694 12.368 42.858 12.368Q40.986 12.368 40.095 12.854Q39.204 13.34 38.925 14.303Q38.646 15.266 38.646 17.12Q38.646 19.028 38.916 19.982Q39.186 20.936 40.122 21.386Q41.058 21.836 43.056 21.836Q43.956 21.836 44.892 21.755Q45.828 21.674 46.404 21.548L46.404 19.712Q44.676 19.856 43.614 19.856Q42.336 19.856 41.832 19.721Q41.328 19.586 41.184 19.19Q41.04 18.794 41.04 17.822ZM21.618 14.429Q21.978 14.276 22.788 14.276Q23.49 14.276 23.832 14.411Q24.174 14.546 24.318 14.978Q24.462 15.41 24.462 16.346L21.006 16.346Q21.024 15.41 21.141 14.996Q21.258 14.582 21.618 14.429ZM41.652 14.429Q42.012 14.276 42.822 14.276Q43.524 14.276 43.866 14.411Q44.208 14.546 44.352 14.978Q44.496 15.41 44.496 16.346L41.04 16.346Q41.058 15.41 41.175 14.996Q41.292 14.582 41.652 14.429Z" />
    </g>
  </g>
</svg>